#!OML:ASF H:\Terrain\Walking\May29\JustinRory\Justin.ASF
:FULLY-SPECIFIED
:DEGREES
216
root 2.39653 18.0426 21.6996 -2.78527 10.2637 -6.18178
lowerback 2.49511 5.12209 3.94285
upperback 0.181791 6.94454 0.539391
thorax -0.805542 3.45808 -1.82935
lowerneck -14.4731 11.1738 -3.34746
upperneck 21.1338 16.8467 -1.51627
head 8.85766 7.50644 1.97708
rclavicle 4.34593e-014 -1.23246e-014
rhumerus 13.4715 42.3348 -53.0045
rradius 91.7527
rwrist -22.1657
rhand 8.07991 21.7343
rfingers 7.12502
rthumb 33.303 -5.20145
lclavicle 4.34593e-014 -1.23246e-014
lhumerus 16.6983 -27.4485 73.2153
lradius 108.953
lwrist 27.0993
lhand 20.9361 22.0939
lfingers 7.12502
lthumb 45.4061 45.4317
rfemur 3.16466 -1.52997 30.209
rtibia 13.9114
rfoot -12.2119 -8.38051
rtoes 5.42839
lfemur -25.2529 1.20102 -5.92125
ltibia 48.4952
lfoot -11.2254 -4.21742
ltoes -14.6658
217
root 2.42597 18.0607 21.8084 -2.54318 10.6301 -5.9229
lowerback 2.57205 5.25777 3.99547
upperback 0.0388606 7.13147 0.320539
thorax -0.95017 3.54606 -2.09892
lowerneck -14.1695 11.5448 -3.06847
upperneck 20.4577 17.3021 -1.86955
head 8.62741 7.74259 1.82615
rclavicle 4.19063e-014 3.57812e-015
rhumerus 13.0896 43.7999 -51.9846
rradius 93.1044
rwrist -23.4834
rhand 9.90232 21.6303
rfingers 7.12502
rthumb 35.0337 -4.91791
lclavicle 4.19063e-014 3.57812e-015
lhumerus 17.1491 -25.9568 74.0944
lradius 107.951
lwrist 27.2474
lhand 18.6053 22.2829
lfingers 7.12502
lthumb 43.2337 46.4458
rfemur 3.88934 -2.22291 29.7679
rtibia 12.9032
rfoot -12.0791 -8.0466
rtoes 4.49547
lfemur -25.6656 0.686692 -6.36485
ltibia 46.5692
lfoot -11.2618 -3.42647
ltoes -14.689
218
root 2.44605 18.0777 21.9199 -2.31154 10.9039 -5.94937
lowerback 2.51659 5.42757 4.21735
upperback -0.0219243 7.36171 0.220133
thorax -0.926261 3.65962 -2.32137
lowerneck -13.9715 11.8955 -2.75312
upperneck 19.8011 17.7886 -2.48854
head 8.45912 7.96353 1.60249
rclavicle -1.67849e-014 1.03368e-014
rhumerus 12.6749 45.0696 -51.1202
rradius 94.5928
rwrist -24.8102
rhand 11.1351 21.6913
rfingers 7.12502
rthumb 36.2021 -4.57529
lclavicle -1.67849e-014 1.03368e-014
lhumerus 18.0889 -24.6662 74.7213
lradius 106.879
lwrist 27.3669
lhand 15.5127 23.5221
lfingers 7.12502
lthumb 40.334 48.6465
rfemur 4.4597 -2.38199 29.7468
rtibia 12.1156
rfoot -12.1573 -8.07119
rtoes 5.12819
lfemur -26.0592 0.307914 -6.46043
ltibia 44.5568
lfoot -11.4022 -2.66278
ltoes -15.2308
219
root 2.44404 18.0806 22.0379 -2.06382 10.9035 -5.7313
lowerback 2.48364 5.6972 3.93126
upperback -0.0810354 7.71142 0.114696
thorax -0.967309 3.83398 -2.2788
lowerneck -13.7936 12.2222 -2.86141
upperneck 19.1487 18.2273 -2.66315
head 8.21466 8.18338 1.56681
rclavicle -6.90031e-014 -8.74653e-015
rhumerus 12.0876 46.1701 -50.5546
rradius 96.2499
rwrist -26.2811
rhand 13.3442 22.4808
rfingers 7.12502
rthumb 38.2908 -3.23869
lclavicle -6.90031e-014 -8.74653e-015
lhumerus 19.0573 -23.5642 75.3286
lradius 105.696
lwrist 27.0781
lhand 12.2635 24.6761
lfingers 7.12502
lthumb 37.2699 50.6703
rfemur 5.07278 -1.81258 29.699
rtibia 11.3444
rfoot -12.077 -8.57908
rtoes 5.64214
lfemur -26.2899 0.236204 -6.71806
ltibia 42.5352
lfoot -11.6962 -1.98404
ltoes -16.3993
220
root 2.45978 18.0679 22.1524 -1.76291 11.0357 -5.47748
lowerback 2.32263 5.79604 3.65825
upperback -0.157038 7.82882 0.00505405
thorax -0.968874 3.89301 -2.23133
lowerneck -13.674 12.5711 -2.94251
upperneck 18.6603 18.6988 -2.79753
head 8.03568 8.41616 1.55371
rclavicle 5.10131e-014 -7.15625e-015
rhumerus 11.664 47.3217 -50.2039
rradius 98.0141
rwrist -27.8331
rhand 17.9066 23.6466
rfingers 7.12502
rthumb 42.5802 -0.746056
lclavicle 5.10131e-014 -7.15625e-015
lhumerus 19.4454 -22.0364 76.0131
lradius 104.255
lwrist 26.785
lhand 9.87721 25.051
lfingers 7.12502
lthumb 35.0099 51.6048
rfemur 5.71249 -1.95984 29.4712
rtibia 10.3769
rfoot -11.8503 -8.658
rtoes 4.70748
lfemur -26.5888 0.202167 -7.15957
ltibia 40.6126
lfoot -11.7619 -1.40993
ltoes -17.2161
